<svg xmlns="http://www.w3.org/2000/svg" xmlns:xlink="http://www.w3.org/1999/xlink" version="1.1" x="0px" y="0px" viewBox="0 0 468 585" style="enable-background:new 0 0 468 468;" xml:space="preserve"><g><path d="M44.432,202.628h181.421v-9.423c0-50.003-40.692-90.683-90.71-90.683s-90.71,40.68-90.71,90.683V202.628z"/><path d="M377.523,0H309.31c-4.112,0-7.445,3.332-7.445,7.443v95.154h14.891V48.499h60.768V0z"/><g><g><path d="M289.859,168.046c0,10.524,8.726,19.086,19.452,19.086c10.727,0,19.453-8.562,19.453-19.086     c0-10.524-8.726-19.086-19.453-19.086C298.585,148.96,289.859,157.522,289.859,168.046z"/><path d="M377.686,102.597h-60.931v32.291c15.368,3.374,26.898,16.956,26.898,33.159c0,18.733-15.406,33.973-34.344,33.973     c-18.937,0-34.343-15.24-34.343-33.973c0-16.203,11.53-29.784,26.897-33.159v-32.291H189.413     c7.86,4.714,15.146,10.485,21.672,17.227c19.125,19.763,29.658,45.787,29.658,73.279v65.692c14.59-6.17,30.41-9.393,46.387-9.393     c65.036,0,117.945,52.371,117.945,116.743c0,3.684-0.178,7.383-0.529,11.064H468V192.78     C468,143.053,427.485,102.597,377.686,102.597z"/></g><g><polygon points="213.171,217.515 12.682,217.515 112.926,303.413    "/><path d="M117.772,318.868c-2.789,2.389-6.903,2.389-9.691,0L0,226.255v150.953h169.714c-0.352-3.681-0.529-7.38-0.529-11.064     c0-40.797,21.603-78.622,56.668-99.76v-40.129L117.772,318.868z"/></g><g><path d="M265.784,376.335c0,4.183,1.162,13.914,11.922,13.914c10.821,0,21.429-14.109,23.685-26.723l4.081-21.8     c-2.599-0.62-5.376-0.934-8.28-0.934C280.167,340.792,265.784,357.069,265.784,376.335z"/><path d="M287.13,264.287c-56.824,0-103.054,45.693-103.054,101.857S230.306,468,287.13,468     c56.825,0,103.054-45.692,103.054-101.856S343.954,264.287,287.13,264.287z M318.568,405.269     c-9.3,0.051-16.182-6.238-17.232-15.36c-7.393,10.326-16.807,15.36-28.661,15.36c-12.195,0-24.54-9.653-24.54-28.101     c0-28.226,23.136-51.189,51.574-51.189c9.144,0.027,17.653,1.789,24.57,5.163l-7.399,39.096     c-2.439,12.275-1.003,17.275,0.631,19.31c3.915,3.856,9.809,0.862,13.913-2.92c6.731-6.55,10.591-18.034,10.591-31.507     c0-30.777-18.7-49.896-48.803-49.896c-35.321,0-60.957,28.245-60.957,67.159c0,32.456,20.875,54.263,51.945,54.263     c10.022-0.024,18.727-1.647,26.405-4.94c3.491-1.497,7.521,0.214,8.854,3.77l0,0c1.226,3.271-0.273,6.966-3.464,8.39     c-10.125,4.519-20.751,6.555-34.101,6.554c-37.896,0-65.402-28.088-65.402-66.788c-0.702-44.198,33.079-82.51,78.393-81.764     c37.03,0,62.892,25.497,62.892,62.005C357.778,387.615,338.053,405.269,318.568,405.269z"/></g></g></g><text x="0" y="483" fill="#000000" font-size="5px" font-weight="bold" font-family="'Helvetica Neue', Helvetica, Arial-Unicode, Arial, Sans-serif">Created by SBTS</text><text x="0" y="488" fill="#000000" font-size="5px" font-weight="bold" font-family="'Helvetica Neue', Helvetica, Arial-Unicode, Arial, Sans-serif">from the Noun Project</text></svg>